inDegrees=no
num_controls=7
num_derivatives=13
num_iterations=149
num_multipliers=7
num_parameters=0
num_slacks=7
num_states=26
objective=5.582129
objective_accelerations=0.606015
objective_balance=0.085633
objective_effort=0.484695
objective_height=4.303046
objective_ligament=0.102740
solver_duration=1658.152419
status=Solve_Succeeded
success=true
DataType=double
version=3
OpenSimVersion=4.4-2022-07-23-0e9fedc
endheader
time	/jointset/ground_pelvis/pelvis_tilt/value	/jointset/ground_pelvis/pelvis_tx/value	/jointset/ground_pelvis/pelvis_ty/value	/jointset/hip_l/hip_flexion_l/value	/jointset/hip_l/hip_adduction_l/value	/jointset/hip_l/hip_rotation_l/value	/jointset/back/lumbar_extension/value	/jointset/patellofemoral_l/patellar_flexion_l/value	/jointset/knee_l/knee_flexion_l/value	/jointset/knee_l/knee_adduction_l/value	/jointset/knee_l/knee_rotation_l/value	/jointset/ankle_l/ankle_angle_l/value	/jointset/subtalar_l/subtalar_angle_l/value	/jointset/ground_pelvis/pelvis_tilt/speed	/jointset/ground_pelvis/pelvis_tx/speed	/jointset/ground_pelvis/pelvis_ty/speed	/jointset/hip_l/hip_flexion_l/speed	/jointset/hip_l/hip_adduction_l/speed	/jointset/hip_l/hip_rotation_l/speed	/jointset/back/lumbar_extension/speed	/jointset/patellofemoral_l/patellar_flexion_l/speed	/jointset/knee_l/knee_flexion_l/speed	/jointset/knee_l/knee_adduction_l/speed	/jointset/knee_l/knee_rotation_l/speed	/jointset/ankle_l/ankle_angle_l/speed	/jointset/subtalar_l/subtalar_angle_l/speed	/forceset/tau_hip_flexion_l	/forceset/tau_hip_adduction_l	/forceset/tau_hip_rotation_l	/forceset/tau_knee_flexion_l	/forceset/tau_ankle_angle_l	/forceset/tau_subtalar_angle_l	/forceset/tau_lumbar_extension	lambda_cid13_p0	lambda_cid13_p1	lambda_cid13_p2	lambda_cid13_p3	lambda_cid13_p4	lambda_cid13_p5	lambda_cid14_p0	/jointset/ground_pelvis/pelvis_tilt/accel	/jointset/ground_pelvis/pelvis_tx/accel	/jointset/ground_pelvis/pelvis_ty/accel	/jointset/hip_l/hip_flexion_l/accel	/jointset/hip_l/hip_adduction_l/accel	/jointset/hip_l/hip_rotation_l/accel	/jointset/back/lumbar_extension/accel	/jointset/patellofemoral_l/patellar_flexion_l/accel	/jointset/knee_l/knee_flexion_l/accel	/jointset/knee_l/knee_adduction_l/accel	/jointset/knee_l/knee_rotation_l/accel	/jointset/ankle_l/ankle_angle_l/accel	/jointset/subtalar_l/subtalar_angle_l/accel	gamma_cid13_p0	gamma_cid13_p1	gamma_cid13_p2	gamma_cid13_p3	gamma_cid13_p4	gamma_cid13_p5	gamma_cid14_p0
0.5	-0.4971024484566684	-0.09705180506313754	0.7606072225826243	1.304711653455679	-0.3102403009675864	-0.07442683747601846	-0.3334421379398009	0.6199722484221728	0.6199722484223519	-0.1734671661752662	0.1744343965772698	-0.02934963459377504	-0.06197040542242576	-0.8899620768669855	-0.3246051627797282	-0.4965441584104817	2.478757223042157	-0.05821596998166119	0.5452622685638908	-0.6184815445970758	1.596209515470171	1.596209515470374	-0.00516696621370513	0.0002774953172213482	0.07853676598828008	-0.05895204779320197	-0.2697102511211249	0.0192173147290297	-0.01847579606967301	-0.1793460018075518	0.1696876741642777	0.03970635600873492	0.2344770781780805	15.26118242542484	-22.47073039752705	6.097469407247578	-7.394442981130697	-608.5674561169362	-56.51018462840832	-32.10768853906358	0.6488772435960068	0.7761137620231952	-0.2592283472998279	-1.632216821134975	0.4966492883780105	-0.2219506164058408	1.845299945538921	-0.9653018317572502	-0.9653018317572511	0.0140586844812921	-0.02489900249188978	0.1074848274019517	0.5042549966201213	3.343206300853134e-09	-9.315813337258467e-07	1.552884261483429e-07	-1.584371630357865e-07	-1.884242857304397e-07	1.029203590572263e-07	-1.479029619527232e-07
0.51	-0.5059677304946316	-0.100258694466138	0.7556298667910024	1.329413356900657	-0.3107986400978561	-0.06898703690090076	-0.3395348404064445	0.6358839019511736	0.635883901951213	-0.1735194550702019	0.1744374838783459	-0.02855943895607494	-0.06253576523225161	-0.8829789362760454	-0.3167462170118545	-0.4988257137173878	2.461260602548758	-0.05345993872044042	0.5426334420439163	-0.5999966002894931	1.585900432832537	1.585900432832578	-0.005293569643068158	0.0003355421473537383	0.07947011010328192	-0.05413011014262864	-0.2787968176586072	0.01995250178128465	-0.0185139911782666	-0.1800078967766818	0.170404861132804	0.04051521170551643	0.2413124073795508	15.23142100843502	-22.69661570621358	5.99619619061841	-7.467333896083589	-613.309820933501	-56.16452020870346	-31.26756037832825	0.7403303542877823	0.7947291943669276	-0.1974627349636473	-1.856828313380611	0.4639808886360886	-0.2931637574397609	1.859443938896628	-1.096795827265829	-1.096795827290408	-0.02659667684327419	0.02040043006178074	0.08141690847226936	0.4697566783063443	-2.481070268680474e-09	-8.758753946319566e-07	1.619849800387815e-07	-1.504037768801065e-07	-1.770869715272824e-07	1.144806924387483e-07	-1.444162661356057e-07
0.52	-0.51475972154915	-0.1033862055694194	0.7506327267237963	1.353930405410742	-0.3113096387467796	-0.06357548760852194	-0.3454408229768997	0.6516858477842956	0.6516858477841861	-0.1735731253634669	0.1744410004285721	-0.02776087833623697	-0.06305318695976549	-0.8753038801874407	-0.3087295028359132	-0.5005010135273487	2.441826236057807	-0.04874787371354282	0.5396120120180844	-0.5811375653608302	1.574267976294937	1.574267976294815	-0.005443245880357278	0.0003633451493275617	0.08020976241521649	-0.04936443133083757	-0.2878833841961039	0.02068768883353604	-0.01855218628677328	-0.1806697917458029	0.1711220481013394	0.04132406740229645	0.2481477365810048	15.1933767774027	-22.92317350785363	5.897454793002688	-7.518673971425407	-618.1761846072925	-55.86709703499155	-30.40945441834194	0.7872603431279275	0.8076674436373266	-0.1379772479106067	-2.019766020645481	0.4878560375133583	-0.3004713175773821	1.920118069754478	-1.229976611750588	-1.229976611750581	0.009444122895995617	-0.03094776812341346	0.06874646678934443	0.4930032288637929	-7.545390060893115e-09	-8.211119157848228e-07	1.679192421460796e-07	-1.419988004296077e-07	-1.657210858441093e-07	1.244230552490267e-07	-1.404357064779279e-07
0.53	-0.5234716367004182	-0.1064328404007866	0.7456218718786886	1.378243699594993	-0.3117736853366875	-0.05819612611493116	-0.351156420444652	0.6673650105430461	0.667365010543046	-0.1736281653062378	0.1744446350866541	-0.02695583145866952	-0.06352317277131794	-0.8669695744665488	-0.3005778547729517	-0.5015670103695029	2.420523769636184	-0.0440693520198777	0.5361772328046789	-0.5619341466448092	1.561357234005143	1.561357234005168	-0.005548635170449296	0.0003738478785520636	0.08077179366943425	-0.04464182541536797	-0.2967799634286935	0.02125830784067947	-0.01862773808713542	-0.1813716465334062	0.171943241558435	0.04198392805231024	0.2547793622664498	15.19080305440869	-23.09538252095911	5.794788117536325	-7.579576587720811	-622.9422623743798	-55.48741152052943	-29.53675450640385	0.8729398845337256	0.8218272720227064	-0.07550108344935387	-2.231826320593036	0.4567583554257095	-0.3775833912563593	1.927621003550335	-1.352696586482297	-1.3526965864604	-0.01825819700405255	0.01850023002996367	0.04575406323834781	0.4606294120029678	-4.768274466301387e-08	-7.120656726410575e-07	3.452666293922666e-07	-9.820801665713817e-08	-1.758088089504214e-07	1.580848165427509e-07	-1.551761077090719e-07
0.54	-0.5320969239548444	-0.1093973759946439	0.740603439028943	1.402334701241521	-0.3121911650856253	-0.05285363284708019	-0.3566785502790338	0.6829088511691302	0.6829088511692081	-0.1736838046903455	0.1744486649593114	-0.02614599974685585	-0.06394618449589276	-0.8579783008272124	-0.2923096553339399	-0.5020166144549149	2.397367728507648	-0.03943450552091884	0.5322383668699122	-0.5424440386878724	1.547203549759814	1.547203549759986	-0.005563134142224651	0.0004423880711622915	0.08116672926367742	-0.03996961393531863	-0.3056765426612785	0.02182892684785433	-0.01870328988764118	-0.1820735013209717	0.1727644350155468	0.04264378870235534	0.2614109879518885	15.18021499237625	-23.26846278333411	5.694858261859619	-7.623530686758708	-627.8311535610397	-55.15456249959075	-28.65284953356917	0.9186539268159989	0.8309777188479095	-0.01469869656198771	-2.390480962028163	0.4791209985720774	-0.4012886618496818	1.977455917937267	-1.478565002857664	-1.478565002857732	0.02762218655926751	-0.01934027544613736	0.03532733479520447	0.4829243417798693	-1.266243079909909e-07	-5.42961903041444e-07	7.122625806219074e-07	-1.52669779752538e-08	-2.09632439653611e-07	2.179893165841175e-07	-1.90629061412955e-07
0.55	-0.5406291390506734	-0.1122787417445934	0.7355835825220516	1.426185057835693	-0.312562766697514	-0.04755168260221759	-0.3620044610415604	0.6983047951323393	0.6983047951323442	-0.173740211727928	0.1744526582377357	-0.02533317432457808	-0.06432299961742104	-0.8483603548781063	-0.2839525301998115	-0.5018525221935669	2.372413011251612	-0.03489636187431612	0.5280645670733403	-0.5227070224077611	1.53179247511117	1.531792475111165	-0.005697257753612498	0.0003727148673979902	0.08137188951661756	-0.03540489590011255	-0.3143426622894994	0.02223118917842229	-0.01877983067056162	-0.1827117999325276	0.1734633529893683	0.04318391691715598	0.2677893725306153	15.13834876104708	-23.38731838017139	5.589997627705501	-7.596209579768742	-632.5141765128581	-54.742009579135	-27.76093347661219	0.9989927827288356	0.8397305751815425	0.04724228102013078	-2.591585631092988	0.439530833530439	-0.4386838146169546	1.976488193874233	-1.601251868356037	-1.601251868382721	-0.03081738071405071	0.00147578870990771	0.00914525761672463	0.4414874105984905	-1.683405977974238e-07	-4.240792830767525e-07	9.050137513628483e-07	3.399698010385074e-08	-2.210027651559905e-07	2.532717650509097e-07	-2.053328963267282e-07
0.5600000000000001	-0.5490620491162191	-0.1150762061103036	0.7305684227564812	1.449777143552588	-0.3128893129157659	-0.04229412199053221	-0.3671320688991158	0.713540853714568	0.7135408537144795	-0.1737973375507769	0.174456406110415	-0.02451909032235259	-0.0646545191833557	-0.8381172947782669	-0.2755293784860905	-0.5010772661907373	2.345713553047491	-0.03042342679467837	0.5233604402345339	-0.5027834576946603	1.515226473563003	1.515226473562821	-0.005706891194046351	0.0003933069256932121	0.08141844525250032	-0.03091050281660362	-0.3230087819177322	0.02263345150901106	-0.01885637145349848	-0.1833500985440631	0.1741622709632051	0.04372404513197962	0.2741677571093222	15.09062966494486	-23.50849754659695	5.489332421677976	-7.575142603168198	-637.2992227633854	-54.39193257183105	-26.86820652351199	1.043676756961891	0.8441830347668879	0.1075340517345199	-2.73942915164539	0.4660792851790823	-0.5073540702965947	2.014765604534837	-1.709550382762211	-1.709550382762199	0.05252022075002379	-0.001287223034151285	0.003606431384431031	0.4688593514405697	-1.653865593780055e-07	-3.654620426739656e-07	8.886711855173565e-07	4.284844145962068e-08	-2.054291244173989e-07	2.590077516282135e-07	-1.951377886923703e-07
0.5700000000000001	-0.5573895928275447	-0.1177891955991089	0.7255640639625235	1.473093782653973	-0.3131714266683641	-0.03708586472634724	-0.3720595911727106	0.728605462573807	0.7286054625737346	-0.1738540126521309	0.1744604436787583	-0.02370535351184508	-0.06494142368158584	-0.8272953173511681	-0.2670647126988485	-0.4996919849297867	2.317333404417584	-0.02601884464824612	0.5182276197635739	-0.48270858899624	1.497499127348652	1.497499127348664	-0.005630666208139138	0.0004121382853860353	0.08129798914694354	-0.0264915956959579	-0.331338744305309	0.02283548203658568	-0.01892023001694296	-0.1840991728658	0.1749204378881973	0.04408935474665601	0.280220841129851	15.06715700234015	-23.56303062281254	5.383789691121864	-7.509234833538539	-641.8908075416949	-53.95451632001292	-25.97975608738166	1.115853240339007	0.8481889093979139	0.1693619903622991	-2.929466086906608	0.4246568332990409	-0.5259232606841113	2.005708706157978	-1.833714507252092	-1.833714507223261	-0.01522906864721441	0.002960841573362415	-0.02450482199061282	0.4251764735385908	-1.530907172866577e-07	-3.217937300351016e-07	8.298567962298097e-07	4.092975301876954e-08	-1.8386098137616e-07	2.549108526840895e-07	-1.803748103657817e-07
